<mxfile host="app.diagrams.net" agent="Mozilla/5.0 (Macintosh; Intel Mac OS X 10_15_7) AppleWebKit/537.36 (KHTML, like Gecko) Chrome/131.0.0.0 Safari/537.36" version="26.0.2">
  <diagram name="Page-1" id="2a216829-ef6e-dabb-86c1-c78162f3ba2b">
    <mxGraphModel dx="855" dy="1583" grid="1" gridSize="10" guides="1" tooltips="1" connect="1" arrows="1" fold="1" page="1" pageScale="1" pageWidth="850" pageHeight="1100" background="none" math="0" shadow="0">
      <root>
        <mxCell id="0" />
        <mxCell id="1" parent="0" />
        <mxCell id="CBSUOpEDE2gZINihwlHU-5" value="Pool" style="swimlane;childLayout=stackLayout;resizeParent=1;resizeParentMax=0;horizontal=1;startSize=20;horizontalStack=0;html=1;" vertex="1" parent="1">
          <mxGeometry x="80" y="-780" width="980" height="990" as="geometry" />
        </mxCell>
        <mxCell id="CBSUOpEDE2gZINihwlHU-6" value="KYC" style="swimlane;startSize=20;horizontal=0;html=1;" vertex="1" parent="CBSUOpEDE2gZINihwlHU-5">
          <mxGeometry y="20" width="980" height="250" as="geometry" />
        </mxCell>
        <mxCell id="CBSUOpEDE2gZINihwlHU-14" value="Match == 100%" style="edgeStyle=orthogonalEdgeStyle;rounded=0;orthogonalLoop=1;jettySize=auto;html=1;entryX=0;entryY=0.5;entryDx=0;entryDy=0;" edge="1" parent="CBSUOpEDE2gZINihwlHU-6" source="CBSUOpEDE2gZINihwlHU-9" target="CBSUOpEDE2gZINihwlHU-13">
          <mxGeometry x="-0.6364" relative="1" as="geometry">
            <Array as="points">
              <mxPoint x="220" y="150" />
            </Array>
            <mxPoint as="offset" />
          </mxGeometry>
        </mxCell>
        <mxCell id="CBSUOpEDE2gZINihwlHU-9" value="Validate SSN" style="rounded=0;whiteSpace=wrap;html=1;" vertex="1" parent="CBSUOpEDE2gZINihwlHU-6">
          <mxGeometry x="170" y="30" width="100" height="40" as="geometry" />
        </mxCell>
        <mxCell id="CBSUOpEDE2gZINihwlHU-15" value="Match &amp;gt; 95%" style="edgeStyle=orthogonalEdgeStyle;rounded=0;orthogonalLoop=1;jettySize=auto;html=1;exitX=0.5;exitY=1;exitDx=0;exitDy=0;" edge="1" parent="CBSUOpEDE2gZINihwlHU-6" source="CBSUOpEDE2gZINihwlHU-10" target="CBSUOpEDE2gZINihwlHU-13">
          <mxGeometry x="-0.6" y="-10" relative="1" as="geometry">
            <mxPoint x="-10" y="-10" as="offset" />
          </mxGeometry>
        </mxCell>
        <mxCell id="CBSUOpEDE2gZINihwlHU-10" value="Validate Address" style="rounded=0;whiteSpace=wrap;html=1;" vertex="1" parent="CBSUOpEDE2gZINihwlHU-6">
          <mxGeometry x="290" y="30" width="100" height="40" as="geometry" />
        </mxCell>
        <mxCell id="CBSUOpEDE2gZINihwlHU-16" style="edgeStyle=orthogonalEdgeStyle;rounded=0;orthogonalLoop=1;jettySize=auto;html=1;entryX=0.5;entryY=0;entryDx=0;entryDy=0;exitX=0.5;exitY=1;exitDx=0;exitDy=0;" edge="1" parent="CBSUOpEDE2gZINihwlHU-6" source="CBSUOpEDE2gZINihwlHU-11" target="CBSUOpEDE2gZINihwlHU-13">
          <mxGeometry relative="1" as="geometry" />
        </mxCell>
        <mxCell id="CBSUOpEDE2gZINihwlHU-11" value="Validate Phone Number" style="rounded=0;whiteSpace=wrap;html=1;" vertex="1" parent="CBSUOpEDE2gZINihwlHU-6">
          <mxGeometry x="410" y="30" width="100" height="40" as="geometry" />
        </mxCell>
        <mxCell id="CBSUOpEDE2gZINihwlHU-17" value="Match &amp;gt; 80%" style="edgeStyle=orthogonalEdgeStyle;rounded=0;orthogonalLoop=1;jettySize=auto;html=1;entryX=1;entryY=0.5;entryDx=0;entryDy=0;exitX=0.5;exitY=1;exitDx=0;exitDy=0;" edge="1" parent="CBSUOpEDE2gZINihwlHU-6" source="CBSUOpEDE2gZINihwlHU-12" target="CBSUOpEDE2gZINihwlHU-13">
          <mxGeometry relative="1" as="geometry" />
        </mxCell>
        <mxCell id="CBSUOpEDE2gZINihwlHU-12" value="Validate Biometric&lt;br&gt;Photo" style="rounded=0;whiteSpace=wrap;html=1;" vertex="1" parent="CBSUOpEDE2gZINihwlHU-6">
          <mxGeometry x="530" y="30" width="100" height="40" as="geometry" />
        </mxCell>
        <mxCell id="CBSUOpEDE2gZINihwlHU-13" value="All matches?" style="rhombus;whiteSpace=wrap;html=1;" vertex="1" parent="CBSUOpEDE2gZINihwlHU-6">
          <mxGeometry x="360" y="110" width="80" height="80" as="geometry" />
        </mxCell>
        <mxCell id="CBSUOpEDE2gZINihwlHU-19" value="Match &amp;gt;&amp;nbsp;&lt;span style=&quot;background-color: light-dark(#ffffff, var(--ge-dark-color, #121212)); color: light-dark(rgb(0, 0, 0), rgb(255, 255, 255));&quot;&gt;99%&lt;/span&gt;" style="edgeStyle=orthogonalEdgeStyle;rounded=0;orthogonalLoop=1;jettySize=auto;html=1;entryX=0;entryY=0.5;entryDx=0;entryDy=0;" edge="1" parent="CBSUOpEDE2gZINihwlHU-6" source="CBSUOpEDE2gZINihwlHU-18" target="CBSUOpEDE2gZINihwlHU-13">
          <mxGeometry x="-0.4118" relative="1" as="geometry">
            <Array as="points">
              <mxPoint x="90" y="150" />
            </Array>
            <mxPoint as="offset" />
          </mxGeometry>
        </mxCell>
        <mxCell id="CBSUOpEDE2gZINihwlHU-18" value="Validate full name" style="rounded=0;whiteSpace=wrap;html=1;" vertex="1" parent="CBSUOpEDE2gZINihwlHU-6">
          <mxGeometry x="50" y="30" width="100" height="40" as="geometry" />
        </mxCell>
        <mxCell id="CBSUOpEDE2gZINihwlHU-7" value="Bureau validation" style="swimlane;startSize=20;horizontal=0;html=1;" vertex="1" parent="CBSUOpEDE2gZINihwlHU-5">
          <mxGeometry y="270" width="980" height="200" as="geometry" />
        </mxCell>
        <mxCell id="CBSUOpEDE2gZINihwlHU-31" style="edgeStyle=orthogonalEdgeStyle;rounded=0;orthogonalLoop=1;jettySize=auto;html=1;entryX=0;entryY=0.5;entryDx=0;entryDy=0;" edge="1" parent="CBSUOpEDE2gZINihwlHU-7" source="CBSUOpEDE2gZINihwlHU-21" target="CBSUOpEDE2gZINihwlHU-28">
          <mxGeometry relative="1" as="geometry">
            <Array as="points">
              <mxPoint x="243" y="150" />
            </Array>
          </mxGeometry>
        </mxCell>
        <mxCell id="CBSUOpEDE2gZINihwlHU-21" value="Marital status match" style="rounded=0;whiteSpace=wrap;html=1;" vertex="1" parent="CBSUOpEDE2gZINihwlHU-7">
          <mxGeometry x="195" y="30" width="100" height="40" as="geometry" />
        </mxCell>
        <mxCell id="CBSUOpEDE2gZINihwlHU-32" style="edgeStyle=orthogonalEdgeStyle;rounded=0;orthogonalLoop=1;jettySize=auto;html=1;" edge="1" parent="CBSUOpEDE2gZINihwlHU-7" source="CBSUOpEDE2gZINihwlHU-23">
          <mxGeometry relative="1" as="geometry">
            <mxPoint x="780" y="140" as="targetPoint" />
            <Array as="points">
              <mxPoint x="360" y="150" />
              <mxPoint x="780" y="150" />
            </Array>
          </mxGeometry>
        </mxCell>
        <mxCell id="CBSUOpEDE2gZINihwlHU-23" value="Open debt == 0" style="rounded=0;whiteSpace=wrap;html=1;" vertex="1" parent="CBSUOpEDE2gZINihwlHU-7">
          <mxGeometry x="318" y="30" width="100" height="40" as="geometry" />
        </mxCell>
        <mxCell id="CBSUOpEDE2gZINihwlHU-24" style="edgeStyle=orthogonalEdgeStyle;rounded=0;orthogonalLoop=1;jettySize=auto;html=1;entryX=0;entryY=0.5;entryDx=0;entryDy=0;exitX=0.5;exitY=1;exitDx=0;exitDy=0;" edge="1" parent="CBSUOpEDE2gZINihwlHU-7" source="CBSUOpEDE2gZINihwlHU-25" target="CBSUOpEDE2gZINihwlHU-28">
          <mxGeometry relative="1" as="geometry" />
        </mxCell>
        <mxCell id="CBSUOpEDE2gZINihwlHU-25" value="No. of open deb in the last 180 days&amp;nbsp; ==0" style="rounded=0;whiteSpace=wrap;html=1;" vertex="1" parent="CBSUOpEDE2gZINihwlHU-7">
          <mxGeometry x="438" y="30" width="100" height="40" as="geometry" />
        </mxCell>
        <mxCell id="CBSUOpEDE2gZINihwlHU-33" style="edgeStyle=orthogonalEdgeStyle;rounded=0;orthogonalLoop=1;jettySize=auto;html=1;entryX=0;entryY=0.5;entryDx=0;entryDy=0;" edge="1" parent="CBSUOpEDE2gZINihwlHU-7" source="CBSUOpEDE2gZINihwlHU-27" target="CBSUOpEDE2gZINihwlHU-28">
          <mxGeometry relative="1" as="geometry">
            <Array as="points">
              <mxPoint x="630" y="150" />
              <mxPoint x="780" y="150" />
            </Array>
          </mxGeometry>
        </mxCell>
        <mxCell id="CBSUOpEDE2gZINihwlHU-27" value="Debt to income&lt;br&gt;&amp;lt; 40%" style="rounded=0;whiteSpace=wrap;html=1;" vertex="1" parent="CBSUOpEDE2gZINihwlHU-7">
          <mxGeometry x="580" y="30" width="100" height="40" as="geometry" />
        </mxCell>
        <mxCell id="CBSUOpEDE2gZINihwlHU-28" value="All matches?" style="rhombus;whiteSpace=wrap;html=1;" vertex="1" parent="CBSUOpEDE2gZINihwlHU-7">
          <mxGeometry x="780" y="100" width="80" height="80" as="geometry" />
        </mxCell>
        <mxCell id="CBSUOpEDE2gZINihwlHU-29" value="" style="edgeStyle=orthogonalEdgeStyle;rounded=0;orthogonalLoop=1;jettySize=auto;html=1;entryX=0;entryY=0.5;entryDx=0;entryDy=0;" edge="1" parent="CBSUOpEDE2gZINihwlHU-7" source="CBSUOpEDE2gZINihwlHU-30" target="CBSUOpEDE2gZINihwlHU-28">
          <mxGeometry x="-0.4121" relative="1" as="geometry">
            <Array as="points">
              <mxPoint x="118" y="150" />
            </Array>
            <mxPoint as="offset" />
          </mxGeometry>
        </mxCell>
        <mxCell id="CBSUOpEDE2gZINihwlHU-30" value="age &amp;gt; 18 and&lt;div&gt;age &amp;lt; 75&lt;/div&gt;" style="rounded=0;whiteSpace=wrap;html=1;" vertex="1" parent="CBSUOpEDE2gZINihwlHU-7">
          <mxGeometry x="80" y="30" width="100" height="40" as="geometry" />
        </mxCell>
        <mxCell id="CBSUOpEDE2gZINihwlHU-8" value="Income validation" style="swimlane;startSize=20;horizontal=0;html=1;" vertex="1" parent="CBSUOpEDE2gZINihwlHU-5">
          <mxGeometry y="470" width="980" height="180" as="geometry" />
        </mxCell>
        <mxCell id="CBSUOpEDE2gZINihwlHU-51" style="edgeStyle=orthogonalEdgeStyle;rounded=0;orthogonalLoop=1;jettySize=auto;html=1;entryX=0;entryY=0.5;entryDx=0;entryDy=0;" edge="1" parent="CBSUOpEDE2gZINihwlHU-8" source="CBSUOpEDE2gZINihwlHU-48" target="CBSUOpEDE2gZINihwlHU-50">
          <mxGeometry relative="1" as="geometry" />
        </mxCell>
        <mxCell id="CBSUOpEDE2gZINihwlHU-48" value="Var&amp;nbsp; Informed income and payrol income &amp;lt; 5%" style="rounded=0;whiteSpace=wrap;html=1;" vertex="1" parent="CBSUOpEDE2gZINihwlHU-8">
          <mxGeometry x="80" y="20" width="140" height="40" as="geometry" />
        </mxCell>
        <mxCell id="CBSUOpEDE2gZINihwlHU-52" style="edgeStyle=orthogonalEdgeStyle;rounded=0;orthogonalLoop=1;jettySize=auto;html=1;entryX=0;entryY=0.5;entryDx=0;entryDy=0;" edge="1" parent="CBSUOpEDE2gZINihwlHU-8" source="CBSUOpEDE2gZINihwlHU-49" target="CBSUOpEDE2gZINihwlHU-50">
          <mxGeometry relative="1" as="geometry" />
        </mxCell>
        <mxCell id="CBSUOpEDE2gZINihwlHU-49" value="Var&amp;nbsp; Informed income and Bank income &amp;lt; 5%" style="rounded=0;whiteSpace=wrap;html=1;" vertex="1" parent="CBSUOpEDE2gZINihwlHU-8">
          <mxGeometry x="80" y="110" width="140" height="40" as="geometry" />
        </mxCell>
        <mxCell id="CBSUOpEDE2gZINihwlHU-50" value="At leat one&lt;br&gt;&amp;nbsp;income is good?" style="rhombus;whiteSpace=wrap;html=1;" vertex="1" parent="CBSUOpEDE2gZINihwlHU-8">
          <mxGeometry x="345" y="40" width="130" height="80" as="geometry" />
        </mxCell>
        <mxCell id="CBSUOpEDE2gZINihwlHU-54" value="Limit determinatiion" style="swimlane;startSize=20;horizontal=0;html=1;" vertex="1" parent="CBSUOpEDE2gZINihwlHU-5">
          <mxGeometry y="650" width="980" height="340" as="geometry" />
        </mxCell>
        <mxCell id="CBSUOpEDE2gZINihwlHU-55" style="edgeStyle=orthogonalEdgeStyle;rounded=0;orthogonalLoop=1;jettySize=auto;html=1;entryX=0.5;entryY=0;entryDx=0;entryDy=0;" edge="1" parent="CBSUOpEDE2gZINihwlHU-54" target="CBSUOpEDE2gZINihwlHU-59">
          <mxGeometry relative="1" as="geometry">
            <mxPoint x="220" y="40" as="sourcePoint" />
          </mxGeometry>
        </mxCell>
        <mxCell id="CBSUOpEDE2gZINihwlHU-60" value="" style="ellipse;whiteSpace=wrap;html=1;aspect=fixed;" vertex="1" parent="CBSUOpEDE2gZINihwlHU-54">
          <mxGeometry x="50" y="40" width="20" height="20" as="geometry" />
        </mxCell>
        <mxCell id="CBSUOpEDE2gZINihwlHU-65" value="Yes" style="edgeStyle=orthogonalEdgeStyle;rounded=0;orthogonalLoop=1;jettySize=auto;html=1;" edge="1" parent="CBSUOpEDE2gZINihwlHU-54" source="CBSUOpEDE2gZINihwlHU-62" target="CBSUOpEDE2gZINihwlHU-64">
          <mxGeometry relative="1" as="geometry" />
        </mxCell>
        <mxCell id="CBSUOpEDE2gZINihwlHU-67" value="No" style="edgeStyle=orthogonalEdgeStyle;rounded=0;orthogonalLoop=1;jettySize=auto;html=1;entryX=0;entryY=0.5;entryDx=0;entryDy=0;" edge="1" parent="CBSUOpEDE2gZINihwlHU-54" source="CBSUOpEDE2gZINihwlHU-62" target="CBSUOpEDE2gZINihwlHU-66">
          <mxGeometry relative="1" as="geometry" />
        </mxCell>
        <mxCell id="CBSUOpEDE2gZINihwlHU-62" value="Credit score &amp;gt; 800" style="rhombus;whiteSpace=wrap;html=1;" vertex="1" parent="CBSUOpEDE2gZINihwlHU-54">
          <mxGeometry x="110" y="10" width="130" height="80" as="geometry" />
        </mxCell>
        <mxCell id="CBSUOpEDE2gZINihwlHU-63" style="edgeStyle=orthogonalEdgeStyle;rounded=0;orthogonalLoop=1;jettySize=auto;html=1;" edge="1" parent="CBSUOpEDE2gZINihwlHU-54" source="CBSUOpEDE2gZINihwlHU-60">
          <mxGeometry relative="1" as="geometry">
            <mxPoint x="110" y="52" as="targetPoint" />
          </mxGeometry>
        </mxCell>
        <mxCell id="CBSUOpEDE2gZINihwlHU-104" style="edgeStyle=orthogonalEdgeStyle;rounded=0;orthogonalLoop=1;jettySize=auto;html=1;entryX=0.5;entryY=0;entryDx=0;entryDy=0;" edge="1" parent="CBSUOpEDE2gZINihwlHU-54" source="CBSUOpEDE2gZINihwlHU-64" target="CBSUOpEDE2gZINihwlHU-102">
          <mxGeometry relative="1" as="geometry">
            <Array as="points">
              <mxPoint x="175" y="200" />
              <mxPoint x="533" y="200" />
            </Array>
          </mxGeometry>
        </mxCell>
        <mxCell id="CBSUOpEDE2gZINihwlHU-64" value="Max debt to income&amp;nbsp; = 40%" style="rounded=0;whiteSpace=wrap;html=1;" vertex="1" parent="CBSUOpEDE2gZINihwlHU-54">
          <mxGeometry x="120" y="130" width="110" height="40" as="geometry" />
        </mxCell>
        <mxCell id="CBSUOpEDE2gZINihwlHU-69" value="yes" style="edgeStyle=orthogonalEdgeStyle;rounded=0;orthogonalLoop=1;jettySize=auto;html=1;entryX=0.5;entryY=0;entryDx=0;entryDy=0;" edge="1" parent="CBSUOpEDE2gZINihwlHU-54" source="CBSUOpEDE2gZINihwlHU-66" target="CBSUOpEDE2gZINihwlHU-68">
          <mxGeometry relative="1" as="geometry" />
        </mxCell>
        <mxCell id="CBSUOpEDE2gZINihwlHU-66" value="Credit score &amp;gt; 750" style="rhombus;whiteSpace=wrap;html=1;" vertex="1" parent="CBSUOpEDE2gZINihwlHU-54">
          <mxGeometry x="310" y="10" width="130" height="80" as="geometry" />
        </mxCell>
        <mxCell id="CBSUOpEDE2gZINihwlHU-105" style="edgeStyle=orthogonalEdgeStyle;rounded=0;orthogonalLoop=1;jettySize=auto;html=1;" edge="1" parent="CBSUOpEDE2gZINihwlHU-54" source="CBSUOpEDE2gZINihwlHU-68">
          <mxGeometry relative="1" as="geometry">
            <mxPoint x="530" y="240" as="targetPoint" />
            <Array as="points">
              <mxPoint x="375" y="200" />
              <mxPoint x="531" y="200" />
            </Array>
          </mxGeometry>
        </mxCell>
        <mxCell id="CBSUOpEDE2gZINihwlHU-68" value="Max debt to income&amp;nbsp; = 30%" style="rounded=0;whiteSpace=wrap;html=1;" vertex="1" parent="CBSUOpEDE2gZINihwlHU-54">
          <mxGeometry x="320" y="130" width="110" height="40" as="geometry" />
        </mxCell>
        <mxCell id="CBSUOpEDE2gZINihwlHU-70" value="No" style="edgeStyle=orthogonalEdgeStyle;rounded=0;orthogonalLoop=1;jettySize=auto;html=1;entryX=0;entryY=0.5;entryDx=0;entryDy=0;exitX=1;exitY=0.5;exitDx=0;exitDy=0;" edge="1" parent="CBSUOpEDE2gZINihwlHU-54" target="CBSUOpEDE2gZINihwlHU-72" source="CBSUOpEDE2gZINihwlHU-66">
          <mxGeometry relative="1" as="geometry">
            <mxPoint x="460" y="50" as="sourcePoint" />
          </mxGeometry>
        </mxCell>
        <mxCell id="CBSUOpEDE2gZINihwlHU-71" value="yes" style="edgeStyle=orthogonalEdgeStyle;rounded=0;orthogonalLoop=1;jettySize=auto;html=1;entryX=0.5;entryY=0;entryDx=0;entryDy=0;" edge="1" parent="CBSUOpEDE2gZINihwlHU-54" source="CBSUOpEDE2gZINihwlHU-72" target="CBSUOpEDE2gZINihwlHU-73">
          <mxGeometry relative="1" as="geometry" />
        </mxCell>
        <mxCell id="CBSUOpEDE2gZINihwlHU-72" value="Credit score &amp;gt; 650" style="rhombus;whiteSpace=wrap;html=1;" vertex="1" parent="CBSUOpEDE2gZINihwlHU-54">
          <mxGeometry x="530" y="10" width="130" height="80" as="geometry" />
        </mxCell>
        <mxCell id="CBSUOpEDE2gZINihwlHU-106" style="edgeStyle=orthogonalEdgeStyle;rounded=0;orthogonalLoop=1;jettySize=auto;html=1;entryX=0.5;entryY=0;entryDx=0;entryDy=0;" edge="1" parent="CBSUOpEDE2gZINihwlHU-54" source="CBSUOpEDE2gZINihwlHU-73" target="CBSUOpEDE2gZINihwlHU-102">
          <mxGeometry relative="1" as="geometry">
            <Array as="points">
              <mxPoint x="595" y="200" />
              <mxPoint x="533" y="200" />
            </Array>
          </mxGeometry>
        </mxCell>
        <mxCell id="CBSUOpEDE2gZINihwlHU-73" value="Max debt to income&amp;nbsp; = 20%" style="rounded=0;whiteSpace=wrap;html=1;" vertex="1" parent="CBSUOpEDE2gZINihwlHU-54">
          <mxGeometry x="540" y="130" width="110" height="40" as="geometry" />
        </mxCell>
        <mxCell id="CBSUOpEDE2gZINihwlHU-74" value="No" style="edgeStyle=orthogonalEdgeStyle;rounded=0;orthogonalLoop=1;jettySize=auto;html=1;entryX=0;entryY=0.5;entryDx=0;entryDy=0;exitX=1;exitY=0.5;exitDx=0;exitDy=0;" edge="1" parent="CBSUOpEDE2gZINihwlHU-54" target="CBSUOpEDE2gZINihwlHU-76" source="CBSUOpEDE2gZINihwlHU-72">
          <mxGeometry relative="1" as="geometry">
            <mxPoint x="650" y="60" as="sourcePoint" />
          </mxGeometry>
        </mxCell>
        <mxCell id="CBSUOpEDE2gZINihwlHU-75" value="yes" style="edgeStyle=orthogonalEdgeStyle;rounded=0;orthogonalLoop=1;jettySize=auto;html=1;entryX=0.5;entryY=0;entryDx=0;entryDy=0;" edge="1" parent="CBSUOpEDE2gZINihwlHU-54" source="CBSUOpEDE2gZINihwlHU-76" target="CBSUOpEDE2gZINihwlHU-77">
          <mxGeometry relative="1" as="geometry" />
        </mxCell>
        <mxCell id="CBSUOpEDE2gZINihwlHU-76" value="Credit score &amp;gt; 580" style="rhombus;whiteSpace=wrap;html=1;" vertex="1" parent="CBSUOpEDE2gZINihwlHU-54">
          <mxGeometry x="710" y="10" width="130" height="80" as="geometry" />
        </mxCell>
        <mxCell id="CBSUOpEDE2gZINihwlHU-107" style="edgeStyle=orthogonalEdgeStyle;rounded=0;orthogonalLoop=1;jettySize=auto;html=1;entryX=0.5;entryY=0;entryDx=0;entryDy=0;" edge="1" parent="CBSUOpEDE2gZINihwlHU-54" source="CBSUOpEDE2gZINihwlHU-77" target="CBSUOpEDE2gZINihwlHU-102">
          <mxGeometry relative="1" as="geometry">
            <Array as="points">
              <mxPoint x="775" y="200" />
              <mxPoint x="533" y="200" />
            </Array>
          </mxGeometry>
        </mxCell>
        <mxCell id="CBSUOpEDE2gZINihwlHU-77" value="Max debt to income&amp;nbsp; = 10%" style="rounded=0;whiteSpace=wrap;html=1;" vertex="1" parent="CBSUOpEDE2gZINihwlHU-54">
          <mxGeometry x="720" y="130" width="110" height="40" as="geometry" />
        </mxCell>
        <mxCell id="CBSUOpEDE2gZINihwlHU-108" style="edgeStyle=orthogonalEdgeStyle;rounded=0;orthogonalLoop=1;jettySize=auto;html=1;entryX=0.5;entryY=0;entryDx=0;entryDy=0;" edge="1" parent="CBSUOpEDE2gZINihwlHU-54" source="CBSUOpEDE2gZINihwlHU-78" target="CBSUOpEDE2gZINihwlHU-102">
          <mxGeometry relative="1" as="geometry">
            <Array as="points">
              <mxPoint x="915" y="200" />
              <mxPoint x="533" y="200" />
            </Array>
          </mxGeometry>
        </mxCell>
        <mxCell id="CBSUOpEDE2gZINihwlHU-78" value="Max debt to income&amp;nbsp; = 0%" style="rounded=0;whiteSpace=wrap;html=1;" vertex="1" parent="CBSUOpEDE2gZINihwlHU-54">
          <mxGeometry x="860" y="130" width="110" height="40" as="geometry" />
        </mxCell>
        <mxCell id="CBSUOpEDE2gZINihwlHU-80" style="edgeStyle=orthogonalEdgeStyle;rounded=0;orthogonalLoop=1;jettySize=auto;html=1;exitX=1;exitY=0.5;exitDx=0;exitDy=0;entryX=0.577;entryY=0.013;entryDx=0;entryDy=0;entryPerimeter=0;" edge="1" parent="CBSUOpEDE2gZINihwlHU-54" source="CBSUOpEDE2gZINihwlHU-76" target="CBSUOpEDE2gZINihwlHU-78">
          <mxGeometry relative="1" as="geometry" />
        </mxCell>
        <mxCell id="CBSUOpEDE2gZINihwlHU-102" value="Credit Limit =&amp;nbsp; PV(2%, Max per, Valid Income * Max deb to income)" style="rounded=0;whiteSpace=wrap;html=1;" vertex="1" parent="CBSUOpEDE2gZINihwlHU-54">
          <mxGeometry x="380" y="240" width="305" height="40" as="geometry" />
        </mxCell>
        <mxCell id="CBSUOpEDE2gZINihwlHU-110" style="edgeStyle=orthogonalEdgeStyle;rounded=0;orthogonalLoop=1;jettySize=auto;html=1;entryX=0;entryY=0.25;entryDx=0;entryDy=0;" edge="1" parent="CBSUOpEDE2gZINihwlHU-54" source="CBSUOpEDE2gZINihwlHU-109" target="CBSUOpEDE2gZINihwlHU-102">
          <mxGeometry relative="1" as="geometry" />
        </mxCell>
        <mxCell id="CBSUOpEDE2gZINihwlHU-109" value="Max No. of Periods = 6 months" style="rounded=0;whiteSpace=wrap;html=1;" vertex="1" parent="CBSUOpEDE2gZINihwlHU-54">
          <mxGeometry x="130" y="240" width="110" height="40" as="geometry" />
        </mxCell>
        <mxCell id="CBSUOpEDE2gZINihwlHU-142" value="Pool" style="swimlane;childLayout=stackLayout;resizeParent=1;resizeParentMax=0;startSize=20;html=1;" vertex="1" parent="1">
          <mxGeometry x="1060" y="-780" width="510" height="990" as="geometry" />
        </mxCell>
        <mxCell id="CBSUOpEDE2gZINihwlHU-143" value="Lane 1" style="swimlane;startSize=20;html=1;" vertex="1" parent="CBSUOpEDE2gZINihwlHU-142">
          <mxGeometry y="20" width="510" height="970" as="geometry" />
        </mxCell>
        <mxCell id="CBSUOpEDE2gZINihwlHU-149" value="Yes" style="edgeStyle=orthogonalEdgeStyle;rounded=0;orthogonalLoop=1;jettySize=auto;html=1;entryX=0.5;entryY=0;entryDx=0;entryDy=0;" edge="1" parent="CBSUOpEDE2gZINihwlHU-143" source="CBSUOpEDE2gZINihwlHU-146" target="CBSUOpEDE2gZINihwlHU-147">
          <mxGeometry relative="1" as="geometry" />
        </mxCell>
        <mxCell id="CBSUOpEDE2gZINihwlHU-164" value="No" style="edgeStyle=orthogonalEdgeStyle;rounded=0;orthogonalLoop=1;jettySize=auto;html=1;" edge="1" parent="CBSUOpEDE2gZINihwlHU-143" source="CBSUOpEDE2gZINihwlHU-146">
          <mxGeometry relative="1" as="geometry">
            <mxPoint x="390" y="850" as="targetPoint" />
          </mxGeometry>
        </mxCell>
        <mxCell id="CBSUOpEDE2gZINihwlHU-146" value="KYC Aproved" style="rhombus;whiteSpace=wrap;html=1;" vertex="1" parent="CBSUOpEDE2gZINihwlHU-143">
          <mxGeometry x="160" y="166" width="150" height="87" as="geometry" />
        </mxCell>
        <mxCell id="CBSUOpEDE2gZINihwlHU-154" value="Yes" style="edgeStyle=orthogonalEdgeStyle;rounded=0;orthogonalLoop=1;jettySize=auto;html=1;entryX=0.5;entryY=0;entryDx=0;entryDy=0;" edge="1" parent="CBSUOpEDE2gZINihwlHU-143" source="CBSUOpEDE2gZINihwlHU-147" target="CBSUOpEDE2gZINihwlHU-150">
          <mxGeometry relative="1" as="geometry" />
        </mxCell>
        <mxCell id="CBSUOpEDE2gZINihwlHU-163" style="edgeStyle=orthogonalEdgeStyle;rounded=0;orthogonalLoop=1;jettySize=auto;html=1;entryX=0.5;entryY=0;entryDx=0;entryDy=0;" edge="1" parent="CBSUOpEDE2gZINihwlHU-143" source="CBSUOpEDE2gZINihwlHU-147" target="CBSUOpEDE2gZINihwlHU-160">
          <mxGeometry relative="1" as="geometry" />
        </mxCell>
        <mxCell id="CBSUOpEDE2gZINihwlHU-147" value="Bureau approved" style="rhombus;whiteSpace=wrap;html=1;" vertex="1" parent="CBSUOpEDE2gZINihwlHU-143">
          <mxGeometry x="170" y="346.5" width="130" height="87" as="geometry" />
        </mxCell>
        <mxCell id="CBSUOpEDE2gZINihwlHU-156" style="edgeStyle=orthogonalEdgeStyle;rounded=0;orthogonalLoop=1;jettySize=auto;html=1;entryX=0.5;entryY=0;entryDx=0;entryDy=0;" edge="1" parent="CBSUOpEDE2gZINihwlHU-143" source="CBSUOpEDE2gZINihwlHU-150" target="CBSUOpEDE2gZINihwlHU-155">
          <mxGeometry relative="1" as="geometry" />
        </mxCell>
        <mxCell id="CBSUOpEDE2gZINihwlHU-162" style="edgeStyle=orthogonalEdgeStyle;rounded=0;orthogonalLoop=1;jettySize=auto;html=1;entryX=0.5;entryY=0;entryDx=0;entryDy=0;" edge="1" parent="CBSUOpEDE2gZINihwlHU-143" source="CBSUOpEDE2gZINihwlHU-150" target="CBSUOpEDE2gZINihwlHU-160">
          <mxGeometry relative="1" as="geometry" />
        </mxCell>
        <mxCell id="CBSUOpEDE2gZINihwlHU-150" value="Income validated" style="rhombus;whiteSpace=wrap;html=1;" vertex="1" parent="CBSUOpEDE2gZINihwlHU-143">
          <mxGeometry x="170" y="488" width="130" height="87" as="geometry" />
        </mxCell>
        <mxCell id="CBSUOpEDE2gZINihwlHU-159" style="edgeStyle=orthogonalEdgeStyle;rounded=0;orthogonalLoop=1;jettySize=auto;html=1;entryX=0.5;entryY=0;entryDx=0;entryDy=0;" edge="1" parent="CBSUOpEDE2gZINihwlHU-143" source="CBSUOpEDE2gZINihwlHU-155" target="CBSUOpEDE2gZINihwlHU-158">
          <mxGeometry relative="1" as="geometry" />
        </mxCell>
        <mxCell id="CBSUOpEDE2gZINihwlHU-161" style="edgeStyle=orthogonalEdgeStyle;rounded=0;orthogonalLoop=1;jettySize=auto;html=1;entryX=0.5;entryY=0;entryDx=0;entryDy=0;" edge="1" parent="CBSUOpEDE2gZINihwlHU-143" source="CBSUOpEDE2gZINihwlHU-155" target="CBSUOpEDE2gZINihwlHU-160">
          <mxGeometry relative="1" as="geometry" />
        </mxCell>
        <mxCell id="CBSUOpEDE2gZINihwlHU-155" value="Credit limit &amp;gt; min accepted?" style="rhombus;whiteSpace=wrap;html=1;" vertex="1" parent="CBSUOpEDE2gZINihwlHU-143">
          <mxGeometry x="169" y="700" width="130" height="87" as="geometry" />
        </mxCell>
        <mxCell id="CBSUOpEDE2gZINihwlHU-158" value="Customer approved" style="rounded=1;whiteSpace=wrap;html=1;" vertex="1" parent="CBSUOpEDE2gZINihwlHU-143">
          <mxGeometry x="174" y="860" width="120" height="60" as="geometry" />
        </mxCell>
        <mxCell id="CBSUOpEDE2gZINihwlHU-160" value="Customer rejected" style="rounded=1;whiteSpace=wrap;html=1;" vertex="1" parent="CBSUOpEDE2gZINihwlHU-143">
          <mxGeometry x="330" y="860" width="120" height="60" as="geometry" />
        </mxCell>
        <mxCell id="CBSUOpEDE2gZINihwlHU-175" value="5" style="rounded=1;whiteSpace=wrap;html=1;fillColor=#007CBD;strokeColor=none;fontColor=#FFFFFF;fontStyle=1;fontSize=22;labelBackgroundColor=none;arcSize=30;" vertex="1" parent="CBSUOpEDE2gZINihwlHU-143">
          <mxGeometry x="90" y="90" width="40" height="38" as="geometry" />
        </mxCell>
        <mxCell id="CBSUOpEDE2gZINihwlHU-141" style="edgeStyle=orthogonalEdgeStyle;rounded=0;orthogonalLoop=1;jettySize=auto;html=1;exitX=0.5;exitY=1;exitDx=0;exitDy=0;entryX=0;entryY=0.5;entryDx=0;entryDy=0;" edge="1" parent="1" source="CBSUOpEDE2gZINihwlHU-13" target="CBSUOpEDE2gZINihwlHU-146">
          <mxGeometry relative="1" as="geometry">
            <mxPoint x="910" y="-580" as="targetPoint" />
          </mxGeometry>
        </mxCell>
        <mxCell id="CBSUOpEDE2gZINihwlHU-148" style="edgeStyle=orthogonalEdgeStyle;rounded=0;orthogonalLoop=1;jettySize=auto;html=1;exitX=1;exitY=0.5;exitDx=0;exitDy=0;entryX=0;entryY=0.5;entryDx=0;entryDy=0;" edge="1" parent="1" source="CBSUOpEDE2gZINihwlHU-28" target="CBSUOpEDE2gZINihwlHU-147">
          <mxGeometry relative="1" as="geometry" />
        </mxCell>
        <mxCell id="CBSUOpEDE2gZINihwlHU-153" style="edgeStyle=orthogonalEdgeStyle;rounded=0;orthogonalLoop=1;jettySize=auto;html=1;entryX=0;entryY=0.5;entryDx=0;entryDy=0;" edge="1" parent="1" source="CBSUOpEDE2gZINihwlHU-50" target="CBSUOpEDE2gZINihwlHU-150">
          <mxGeometry relative="1" as="geometry" />
        </mxCell>
        <mxCell id="CBSUOpEDE2gZINihwlHU-157" style="edgeStyle=orthogonalEdgeStyle;rounded=0;orthogonalLoop=1;jettySize=auto;html=1;entryX=0;entryY=0.5;entryDx=0;entryDy=0;" edge="1" parent="1" source="CBSUOpEDE2gZINihwlHU-102" target="CBSUOpEDE2gZINihwlHU-155">
          <mxGeometry relative="1" as="geometry">
            <Array as="points">
              <mxPoint x="1110" y="130" />
              <mxPoint x="1110" y="-16" />
            </Array>
          </mxGeometry>
        </mxCell>
        <mxCell id="CBSUOpEDE2gZINihwlHU-165" value="1" style="rounded=1;whiteSpace=wrap;html=1;fillColor=#007CBD;strokeColor=none;fontColor=#FFFFFF;fontStyle=1;fontSize=22;labelBackgroundColor=none;" vertex="1" parent="1">
          <mxGeometry x="1720" y="-769.5" width="40" height="38" as="geometry" />
        </mxCell>
        <mxCell id="CBSUOpEDE2gZINihwlHU-166" value="&lt;span&gt;All the data collected previously by the SEON and Experian will be feed to all rules.&amp;nbsp; This is a cascade approach for credit valuation that allows future simulation since all rules are calculated and persisted.&lt;/span&gt;" style="text;html=1;align=left;verticalAlign=top;spacingTop=-4;fontSize=14;labelBackgroundColor=none;whiteSpace=wrap;" vertex="1" parent="1">
          <mxGeometry x="1771.5" y="-770" width="449" height="80" as="geometry" />
        </mxCell>
        <mxCell id="CBSUOpEDE2gZINihwlHU-167" value="1" style="rounded=1;whiteSpace=wrap;html=1;fillColor=#007CBD;strokeColor=none;fontColor=#FFFFFF;fontStyle=1;fontSize=22;labelBackgroundColor=none;" vertex="1" parent="1">
          <mxGeometry x="30" y="-728" width="40" height="38" as="geometry" />
        </mxCell>
        <mxCell id="CBSUOpEDE2gZINihwlHU-168" value="2" style="rounded=1;whiteSpace=wrap;html=1;fillColor=#007CBD;strokeColor=none;fontColor=#FFFFFF;fontStyle=1;fontSize=22;labelBackgroundColor=none;arcSize=30;" vertex="1" parent="1">
          <mxGeometry x="1720" y="-652" width="40" height="38" as="geometry" />
        </mxCell>
        <mxCell id="CBSUOpEDE2gZINihwlHU-169" value="&lt;span&gt;Ideally the profile knock out rules should use customer informed data, bureau data and internal data.&lt;br&gt;Here is missing, letigation rules, Federal and international lists of restricted people.&lt;br&gt;Also, not all product eligility is being applied. Ex.&amp;nbsp; max number of credit cards reached.&lt;/span&gt;" style="text;html=1;align=left;verticalAlign=top;spacingTop=-4;fontSize=14;labelBackgroundColor=none;whiteSpace=wrap;" vertex="1" parent="1">
          <mxGeometry x="1781.5" y="-660" width="448.5" height="130" as="geometry" />
        </mxCell>
        <mxCell id="CBSUOpEDE2gZINihwlHU-170" value="2" style="rounded=1;whiteSpace=wrap;html=1;fillColor=#007CBD;strokeColor=none;fontColor=#FFFFFF;fontStyle=1;fontSize=22;labelBackgroundColor=none;arcSize=30;" vertex="1" parent="1">
          <mxGeometry x="30" y="-480" width="40" height="38" as="geometry" />
        </mxCell>
        <mxCell id="CBSUOpEDE2gZINihwlHU-172" value="3" style="rounded=1;whiteSpace=wrap;html=1;fillColor=#007CBD;strokeColor=none;fontColor=#FFFFFF;fontStyle=1;fontSize=22;labelBackgroundColor=none;arcSize=30;" vertex="1" parent="1">
          <mxGeometry x="30" y="-280" width="40" height="38" as="geometry" />
        </mxCell>
        <mxCell id="CBSUOpEDE2gZINihwlHU-173" value="3" style="rounded=1;whiteSpace=wrap;html=1;fillColor=#007CBD;strokeColor=none;fontColor=#FFFFFF;fontStyle=1;fontSize=22;labelBackgroundColor=none;arcSize=30;" vertex="1" parent="1">
          <mxGeometry x="1720" y="-460" width="40" height="38" as="geometry" />
        </mxCell>
        <mxCell id="CBSUOpEDE2gZINihwlHU-174" value="4" style="rounded=1;whiteSpace=wrap;html=1;fillColor=#007CBD;strokeColor=none;fontColor=#FFFFFF;fontStyle=1;fontSize=22;labelBackgroundColor=none;arcSize=30;" vertex="1" parent="1">
          <mxGeometry x="30" y="-100" width="40" height="38" as="geometry" />
        </mxCell>
        <mxCell id="CBSUOpEDE2gZINihwlHU-176" value="The income validation assumes the customer will inform the income and the same can be validated against the bureau.&lt;br&gt;Given that the bureau may have outdated information a treshhold is defined for banking informed income and for payroll income.&lt;br&gt;Here, it is assumed Plaid income data are complementary and not adictive (eg. payroll + dividends)." style="text;html=1;align=left;verticalAlign=top;spacingTop=-4;fontSize=14;labelBackgroundColor=none;whiteSpace=wrap;" vertex="1" parent="1">
          <mxGeometry x="1791.5" y="-470" width="448.5" height="130" as="geometry" />
        </mxCell>
        <mxCell id="CBSUOpEDE2gZINihwlHU-177" value="4" style="rounded=1;whiteSpace=wrap;html=1;fillColor=#007CBD;strokeColor=none;fontColor=#FFFFFF;fontStyle=1;fontSize=22;labelBackgroundColor=none;arcSize=30;" vertex="1" parent="1">
          <mxGeometry x="1720" y="-330" width="40" height="38" as="geometry" />
        </mxCell>
        <mxCell id="CBSUOpEDE2gZINihwlHU-178" value="It is assumed that the experian score is included in the output.&amp;nbsp; Also is is possible to use a score calculated by a machine learning model applied previously.&amp;nbsp; This model may include experian score as a feature.&lt;br&gt;&lt;br&gt;The DTI is adjusted considering the level of risk (score)&lt;br&gt;&lt;div&gt;&lt;br&gt;The limit assumes that a customer can compromise x% of the income for 6 months, so the total limit is calculated using Present Value formula.&lt;/div&gt;&lt;div&gt;&lt;br&gt;&lt;/div&gt;&lt;div&gt;In a real world situation, it is wise to have a limit and over limit. Here it is assumed the 6 months is the over limit and the customer will se something below that.&lt;/div&gt;&lt;div&gt;&lt;br&gt;&lt;/div&gt;" style="text;html=1;align=left;verticalAlign=top;spacingTop=-4;fontSize=14;labelBackgroundColor=none;whiteSpace=wrap;" vertex="1" parent="1">
          <mxGeometry x="1790" y="-340" width="450" height="200" as="geometry" />
        </mxCell>
        <mxCell id="CBSUOpEDE2gZINihwlHU-179" value="5" style="rounded=1;whiteSpace=wrap;html=1;fillColor=#007CBD;strokeColor=none;fontColor=#FFFFFF;fontStyle=1;fontSize=22;labelBackgroundColor=none;arcSize=30;" vertex="1" parent="1">
          <mxGeometry x="1720" y="-90" width="40" height="38" as="geometry" />
        </mxCell>
        <mxCell id="CBSUOpEDE2gZINihwlHU-180" value="Each module is calculated independently, the results are persisted for funel analysis." style="text;html=1;align=left;verticalAlign=top;spacingTop=-4;fontSize=14;labelBackgroundColor=none;whiteSpace=wrap;" vertex="1" parent="1">
          <mxGeometry x="1791.5" y="-90" width="448.5" height="130" as="geometry" />
        </mxCell>
      </root>
    </mxGraphModel>
  </diagram>
</mxfile>
